<svg xmlns="http://www.w3.org/2000/svg" width="256" height="256" viewBox="0 0 100 100">
    <rect width="100" height="100" rx="0" fill="#212529"></rect>
    <path fill="#fff" d="M36.79 35.04L36.79 35.04Q36.79 37.33 38.32 39.35Q39.84 41.37 42.25 42.68Q44.65 43.99 47.71 44.98Q50.76 45.96 54.15 47.05Q57.53 48.14 60.81 49.45Q64.09 50.76 66.49 52.73L66.49 52.73Q71.73 56.99 71.73 64.30L71.73 64.30Q71.73 67.80 70.09 70.91Q68.45 74.02 65.51 76.10L65.51 76.10Q59.50 80.47 49.45 80.47L49.45 80.47Q39.95 80.47 32.75 75.66L32.75 75.66Q28.27 72.82 28.27 70.86L28.27 70.86Q28.27 69.11 30.02 68.02L30.02 68.02Q30.45 67.58 31.11 67.58Q31.76 67.58 32.53 68.13Q33.29 68.67 34.33 69.44Q35.37 70.20 36.95 71.13Q38.53 72.06 40.28 72.82L40.28 72.82Q44.65 74.57 48.80 74.46Q52.95 74.35 55.46 73.80Q57.97 73.26 59.94 71.95L59.94 71.95Q64.09 69.11 64.20 64.74L64.20 64.74Q64.20 59.28 58.84 56.33L58.84 56.33Q56.44 55.02 53.44 53.99Q50.44 52.95 47.11 51.97Q43.78 50.98 40.50 49.56Q37.22 48.14 34.71 46.18L34.71 46.18Q29.36 41.92 29.36 35.26L29.36 35.26Q29.36 31.76 31.05 28.71Q32.75 25.65 35.70 23.68L35.70 23.68Q41.37 19.64 49.89 19.53L49.89 19.53Q62.23 19.53 69.76 27.51L69.76 27.51Q70.20 28.16 70.20 28.98Q70.20 29.80 70.15 30.34Q70.09 30.89 69.55 31.44L69.55 31.44Q68.78 32.42 67.53 32.42Q66.27 32.42 64.85 30.78L64.85 30.78Q61.25 28.16 59.06 27.40L59.06 27.40Q54.70 25.65 50.55 25.65L50.55 25.65Q45.20 25.65 41.37 27.83L41.37 27.83Q36.79 30.45 36.79 35.04Z"></path>
</svg>
