<svg width="3" height="3" viewBox="0 0 3 3" fill="none" xmlns="http://www.w3.org/2000/svg">
<g clip-path="url(#clip0_4_11)">
<rect width="3" height="2.32" rx="0.3" fill="#F3F3F3"/>
<mask id="mask0_4_11" style="mask-type:luminance" maskUnits="userSpaceOnUse" x="0" y="0" width="3" height="3">
<path d="M3 0H0V2.31855H3V0Z" fill="white"/>
</mask>
<g mask="url(#mask0_4_11)">
<path d="M2.8336 2.31855H0.312305C0.140039 2.31855 0 2.1791 0 2.00625V0.312305C0 0.140039 0.140039 0 0.312305 0H2.6877C2.85996 0 3 0.140039 3 0.312305V1.61777C3 1.66406 2.9625 1.70097 2.9168 1.70097C2.87109 1.70097 2.8336 1.66347 2.8336 1.61777V0.312305C2.8336 0.232031 2.76855 0.166992 2.68828 0.166992H0.312305C0.232031 0.166992 0.166993 0.232031 0.166993 0.312305V2.00684C0.166993 2.08711 0.232031 2.15215 0.312305 2.15215H2.8336C2.87989 2.15332 2.91621 2.19141 2.91445 2.2377C2.91327 2.28164 2.87754 2.31739 2.8336 2.31855Z" fill="#36496D"/>
<path d="M2.91685 0.312292L1.50005 1.38515L0.083252 0.312292C0.083252 0.18573 0.185791 0.0831909 0.312354 0.0831909H2.68775C2.81431 0.0831909 2.91685 0.18573 2.91685 0.312292Z" fill="#C5BFEC"/>
<path d="M1.5 1.46836C1.48184 1.46836 1.46426 1.4625 1.44961 1.45136L0.0328125 0.378515C0.0123047 0.362695 0 0.338086 0 0.312305C0 0.140039 0.140039 0 0.312305 0H2.6877C2.85996 0 3 0.140039 3 0.312305C3 0.338086 2.9877 0.362695 2.96719 0.378515L1.55039 1.45136C1.53574 1.4625 1.51816 1.46836 1.5 1.46836ZM0.17168 0.274219L1.5 1.28086L2.82833 0.274219C2.81133 0.210351 2.75333 0.166406 2.6877 0.166406H0.312305C0.246094 0.166993 0.188671 0.210937 0.17168 0.274219ZM2.83301 2.31739C2.81485 2.31739 2.79726 2.31152 2.78261 2.30039L2.19902 1.8586C2.16211 1.83105 2.15507 1.77832 2.1832 1.74199C2.21074 1.70507 2.26347 1.69805 2.2998 1.72618L2.8834 2.16797C2.92031 2.19551 2.92734 2.24824 2.8998 2.28457C2.88399 2.30566 2.85938 2.31798 2.83301 2.31739ZM0.202149 2.29043C0.155859 2.29043 0.118945 2.25293 0.118945 2.20723C0.118945 2.18086 0.13125 2.15625 0.151757 2.14042L0.69961 1.72559C0.736524 1.69805 0.788672 1.70507 0.816211 1.74141C0.84375 1.77832 0.836719 1.83047 0.800391 1.85801L0.252539 2.27344C0.23789 2.28458 0.220313 2.29043 0.202149 2.29043Z" fill="#36496D"/>
</g>
</g>
<defs>
<clipPath id="clip0_4_11">
<rect width="3" height="2.32" rx="0.3" fill="white"/>
</clipPath>
</defs>
</svg>
