<svg width="58" height="20" viewBox="0 0 58 20" fill="none" xmlns="http://www.w3.org/2000/svg">
<path d="M6.44 19.168C5.272 19.168 4.216 18.968 3.272 18.568C2.344 18.168 1.608 17.592 1.064 16.84C0.52 16.088 0.24 15.2 0.224 14.176H3.824C3.872 14.864 4.112 15.408 4.544 15.808C4.992 16.208 5.6 16.408 6.368 16.408C7.152 16.408 7.768 16.224 8.216 15.856C8.664 15.472 8.888 14.976 8.888 14.368C8.888 13.872 8.736 13.464 8.432 13.144C8.128 12.824 7.744 12.576 7.28 12.4C6.832 12.208 6.208 12 5.408 11.776C4.32 11.456 3.432 11.144 2.744 10.84C2.072 10.52 1.488 10.048 0.992 9.424C0.512 8.784 0.272 7.936 0.272 6.88C0.272 5.888 0.52 5.024 1.016 4.288C1.512 3.552 2.208 2.992 3.104 2.608C4 2.208 5.024 2.008 6.176 2.008C7.904 2.008 9.304 2.432 10.376 3.28C11.464 4.112 12.064 5.28 12.176 6.784H8.48C8.448 6.208 8.2 5.736 7.736 5.368C7.288 4.984 6.688 4.792 5.936 4.792C5.28 4.792 4.752 4.96 4.352 5.296C3.968 5.632 3.776 6.12 3.776 6.76C3.776 7.208 3.92 7.584 4.208 7.888C4.512 8.176 4.88 8.416 5.312 8.608C5.76 8.784 6.384 8.992 7.184 9.232C8.272 9.552 9.16 9.872 9.848 10.192C10.536 10.512 11.128 10.992 11.624 11.632C12.12 12.272 12.368 13.112 12.368 14.152C12.368 15.048 12.136 15.88 11.672 16.648C11.208 17.416 10.528 18.032 9.632 18.496C8.736 18.944 7.672 19.168 6.44 19.168ZM14.417 12.304C14.417 10.96 14.681 9.768 15.209 8.728C15.753 7.688 16.481 6.888 17.393 6.328C18.321 5.768 19.353 5.488 20.489 5.488C21.481 5.488 22.345 5.688 23.081 6.088C23.833 6.488 24.433 6.992 24.881 7.6V5.704H28.265V19H24.881V17.056C24.449 17.68 23.849 18.2 23.081 18.616C22.329 19.016 21.457 19.216 20.465 19.216C19.345 19.216 18.321 18.928 17.393 18.352C16.481 17.776 15.753 16.968 15.209 15.928C14.681 14.872 14.417 13.664 14.417 12.304ZM24.881 12.352C24.881 11.536 24.721 10.84 24.401 10.264C24.081 9.672 23.649 9.224 23.105 8.92C22.561 8.6 21.977 8.44 21.353 8.44C20.729 8.44 20.153 8.592 19.625 8.896C19.097 9.2 18.665 9.648 18.329 10.24C18.009 10.816 17.849 11.504 17.849 12.304C17.849 13.104 18.009 13.808 18.329 14.416C18.665 15.008 19.097 15.464 19.625 15.784C20.169 16.104 20.745 16.264 21.353 16.264C21.977 16.264 22.561 16.112 23.105 15.808C23.649 15.488 24.081 15.04 24.401 14.464C24.721 13.872 24.881 13.168 24.881 12.352ZM39.0346 5.512C40.0426 5.512 40.9386 5.736 41.7226 6.184C42.5066 6.616 43.1146 7.264 43.5466 8.128C43.9946 8.976 44.2186 10 44.2186 11.2V19H40.8586V11.656C40.8586 10.6 40.5946 9.792 40.0666 9.232C39.5386 8.656 38.8186 8.368 37.9066 8.368C36.9786 8.368 36.2426 8.656 35.6986 9.232C35.1706 9.792 34.9066 10.6 34.9066 11.656V19H31.5466V1.24H34.9066V7.36C35.3386 6.784 35.9146 6.336 36.6346 6.016C37.3546 5.68 38.1546 5.512 39.0346 5.512ZM49.1178 4.12C48.5258 4.12 48.0298 3.936 47.6298 3.568C47.2458 3.184 47.0538 2.712 47.0538 2.152C47.0538 1.592 47.2458 1.128 47.6298 0.759999C48.0298 0.375999 48.5258 0.183999 49.1178 0.183999C49.7098 0.183999 50.1978 0.375999 50.5818 0.759999C50.9818 1.128 51.1818 1.592 51.1818 2.152C51.1818 2.712 50.9818 3.184 50.5818 3.568C50.1978 3.936 49.7098 4.12 49.1178 4.12ZM50.7738 5.704V19H47.4138V5.704H50.7738ZM57.4535 1.24V19H54.0935V1.24H57.4535Z" fill="white"/>
</svg>
